<svg width="300" height="300" viewBox="0 0 300 300" xmlns="http://www.w3.org/2000/svg"><title>business-icon</title><g fill-rule="nonzero" fill="none"><circle fill="#EBEBEB" cx="150" cy="150" r="150"/><path d="M284.11 159.14c-1-1-2.53-2-3.13-3.35-1.26-2.75.18-4.71.86-7.22a12.63 12.63 0 0 0 0-7.6c-1-3.21-3.58-6.13-3.82-9.57-.29-4.06 2.52-7.74 2.12-11.89-.42-4.32-4.15-7.74-8.4-6.75a13.77 13.77 0 0 0-10.46 6.06c-3 4.53-1.41 9.84-5.08 14.09-2.56 3-5.82 5.55-6.92 9.48-.7 2.53-.2 5 .22 7.52a15.71 15.71 0 0 1-1.61 10.4c-2 4.28-4.9 8.58-5 13.48a9.07 9.07 0 0 0 1.67 5.71c1.73 2.28 3.66 2.43 4.67 4.81-2.49 11.51 10 18.9 20.61 17 5.55-1 13.11-4.06 15.76-9.51 1.48-3 .44-5.34.47-8.53 0-3.41 2.33-6.29 3.18-9.51 1.59-5.91-1.01-10.64-5.14-14.62z" fill="#2A5FEF"/><path d="M54 186.8c-4.44 9.08-28.94 14.24-39.08 3.5-7-7.46-4.84-20-1.69-28.74 1.38-3.85 4.12-8.16 2.44-12.25-.92-2.24-2.79-3.8-3.15-6.31-.62-4.34 2.15-8.35 4.92-11.72a16.43 16.43 0 0 0 4-8.32c.39-2.73-1.25-6.44-1-9.33.92-10.67 17.4-10.15 21.58-2.69 3 5.36 1.23 8.47.68 13.37-.4 3.48 2.47 5.52 3.35 8.62a11.93 11.93 0 0 1-.09 5.89c-.56 2.43-1.9 4.88-2.13 7.36-.39 4 2.12 5.45 4.49 8.26 4.13 4.9.79 10.29 3.2 15.53 2.2 4.82 5.12 11.44 2.48 16.83z" fill="#2AC1EF"/><g fill="#1B193D"><path d="M240.69 127.42a3.22 3.22 0 0 1-2.05.53c-7.59-.52-15.24-.79-22.9-.95-5.333-.1-10.667-.137-16-.11-8.93 0-17.88.14-26.8.27-5.7.087-11.367.153-17 .2h-7.1c-7.69 0-15.34-.05-23-.11-5.64 0-11.27-.05-16.89-.05-11.6 0-23.19.18-34.83.76-4.813.247-9.637.58-14.47 1a3.27 3.27 0 0 1-3.3-1.94 6.36 6.36 0 0 1-1.78-5.53 260.56 260.56 0 0 1 12.87-54.58c.68-1.92 1.81-2.74 3-2.77A4.42 4.42 0 0 1 71 64c4.573-.427 9.143-.803 13.71-1.13 8.52-.58 17.053-1.003 25.6-1.27 6.5-.207 12.997-.31 19.49-.31 7.767 0 15.533.14 23.3.42 5.127.173 10.247.417 15.36.73 8.207.493 16.41 1.16 24.61 2 4.727.46 9.453.98 14.18 1.56 6.947.84 13.887 1.797 20.82 2.87a3.85 3.85 0 0 1 2.18 1.13 5.18 5.18 0 0 1 2.09 3 956.754 956.754 0 0 1 13 47.91c1 4.24-1.98 6.93-4.65 6.51z"/><path d="M224.63 197.36c0 .23-7.64 1.7-7.74.7-46.093 1.333-92.19.853-138.29-1.44-1.67-.08-5.51 3.68-5.47 2.16.73-22.9 1.06-53.35 0-76.25a3.71 3.71 0 0 1 .41-2 3.31 3.31 0 0 1 3.46-2.08c46.58 2.62 93.2 2.91 139.86.87 2.32-1.82 6.59-.88 6.36 2.86a482.96 482.96 0 0 0-.68 43.28c.227 7.333.627 14.667 1.2 22 .08.92.16 6.74.89 9.9zM27.17 183.37c.53 2.4 1.27 6.3 4.15 6.57-.15-4.48-.31-9-.45-13.45-4.85-.73-6.83-6.13-8.16-10.3-1-3.07 3.84-4.39 4.82-1.33a27.11 27.11 0 0 0 1.75 4.34 6.29 6.29 0 0 0 1.44 2.11c-.147-4.847-.287-9.693-.42-14.54a6.77 6.77 0 0 1-3.9-2.1c-1.79-1.94-2.31-4.57-2.37-7.13-.08-3.22 4.92-3.22 5 0 0 1 .24 3 1.14 3.9-.147-5.693-.283-11.387-.41-17.08a12.31 12.31 0 0 1-7.36-11.32c0-3.22 5-3.22 5 0a7.38 7.38 0 0 0 2.29 5.39c.53-2.59 4.88-2.39 4.94.61.08 3.92.19 7.85.28 11.77a3.34 3.34 0 0 0 1.63-3.58c-.65-3.14 4.17-4.48 4.82-1.33A8.36 8.36 0 0 1 35 146c.147 5.953.307 11.907.48 17.86a5.16 5.16 0 0 0 2.74-5.29c-.28-3.2 4.72-3.19 5 0A9.91 9.91 0 0 1 35.66 169c.12 4.107.247 8.217.38 12.33a7.44 7.44 0 0 0 1.55-4.82c-.08-3.22 4.92-3.22 5 0a12.48 12.48 0 0 1-6.35 11.18c.507 16.207 1.113 32.41 1.82 48.61.14 3.22-4.86 3.21-5 0a4271.514 4271.514 0 0 1-1.56-41.33c-5.57.22-8.11-5.64-9.14-10.27-.7-3.13 4.12-4.47 4.81-1.33zM272.19 183.37c-.53 2.4-1.27 6.3-4.15 6.57.15-4.48.31-9 .45-13.45 4.85-.73 6.83-6.13 8.16-10.3 1-3.07-3.84-4.39-4.82-1.33a27.11 27.11 0 0 1-1.75 4.34 6.29 6.29 0 0 1-1.44 2.11c.147-4.847.287-9.693.42-14.54a6.77 6.77 0 0 0 3.9-2.1c1.79-1.94 2.31-4.57 2.37-7.13.08-3.22-4.92-3.22-5 0 0 1-.24 3-1.14 3.9.147-5.693.283-11.387.41-17.08a12.31 12.31 0 0 0 7.4-11.31c0-3.22-5-3.22-5 0a7.38 7.38 0 0 1-2.29 5.39c-.53-2.59-4.88-2.39-4.94.61-.08 3.92-.19 7.85-.28 11.77a3.34 3.34 0 0 1-1.63-3.58c.65-3.14-4.17-4.48-4.82-1.33a8.36 8.36 0 0 0 6.28 10.09 3991.67 3991.67 0 0 1-.48 17.86 5.16 5.16 0 0 1-2.74-5.29c.28-3.2-4.72-3.19-5 0a9.91 9.91 0 0 0 7.6 10.43c-.12 4.107-.247 8.217-.38 12.33a7.44 7.44 0 0 1-1.55-4.82c.08-3.22-4.92-3.22-5 0a12.48 12.48 0 0 0 6.35 11.18 4917.385 4917.385 0 0 1-1.82 48.57c-.14 3.22 4.86 3.21 5 0 .587-13.773 1.107-27.55 1.56-41.33 5.57.22 8.11-5.64 9.14-10.27.71-3.09-4.11-4.43-4.81-1.29z"/></g><g fill="#FFF"><path d="M197.4 194.81c.09 2.16-1.88 4.67-3.91 4.4a88.62 88.62 0 0 0-25.53.12 4 4 0 0 1-4.13-2.16 5 5 0 0 1-1.34-3.82c.08-1.83.37-3.13.38-5.08l.13-14.47c.12-10.22.233-20.437.34-30.65a4 4 0 0 1 2.91-4.11 3.61 3.61 0 0 1 1.89-.63c6.9-.17 13.85-.64 20.75-.5 6.16.13 6.4 4.67 6.63 10.51.64 15.453 1.267 30.917 1.88 46.39zM150.57 162.48a4.72 4.72 0 0 1-3.66 2.9c-3.74.74-8.05.27-11.91.2l-12.46-.23c-7.46-.14-32.06 3-32.78-2.39a172.65 172.65 0 0 1-1.07-22.45c0-1.65 4.69-5.21 6.83-5.13 15.24.59 31 .89 46.13 2.75 6.58.81 8.62 3.74 8.86 8.56.24 4.82 1.49 11 .06 15.79z"/></g><g fill="#FCB14B"><path d="M240.69 127.42a3.22 3.22 0 0 1-2.05.53c-7.59-.52-15.24-.79-22.9-.95-.27-11-2.84-21.72-4.54-32.5-1.5-9.48-2.75-19-3.94-28.55 6.947.84 13.887 1.797 20.82 2.87a3.85 3.85 0 0 1 2.18 1.13 5.18 5.18 0 0 1 2.09 3 956.754 956.754 0 0 1 13 47.91c.99 4.29-1.99 6.98-4.66 6.56zM156.73 124.6a9.36 9.36 0 0 1-.83 2.77h-7.1c-7.69 0-15.34-.05-23-.11l4-66c7.767 0 15.533.14 23.3.42a526.99 526.99 0 0 1 3.29 39.67c.32 7.27 1.43 16.09.34 23.25z"/></g><g fill="#2AC1EF"><path d="M234.61 197.06a2517.964 2517.964 0 0 0-165.8-1 4.5 4.5 0 0 0-.54 0c-4.68.35-4.57 7.8.34 7.8.193.013.387.013.58 0a2497.243 2497.243 0 0 1 165.41 1c5.04.21 5.03-7.6.01-7.8zM187.56 165.44c-6.43 0-6.45 10 0 10s6.44-10 0-10zM199.75 126.9a4.79 4.79 0 0 0 .44-2.59 1681.918 1681.918 0 0 0-6.43-54.83c-.22-1.7-.46-3.39-.69-5.08-8.2-.813-16.403-1.48-24.61-2 1 7.55 1.81 15.14 2.14 22.8.38 8.71.09 17.43.64 26.14.26 4.06-.17 11.39 1.71 15.79l26.8-.23zM110.31 61.6c-.473 21.88-.937 43.76-1.39 65.64-11.6 0-23.19.18-34.83.76a7.11 7.11 0 0 1 .09-.82 4495.213 4495.213 0 0 0 10.5-64.27 645.958 645.958 0 0 1 25.63-1.31z"/></g></g></svg>