<svg width="300" height="300" viewBox="0 0 300 300" xmlns="http://www.w3.org/2000/svg"><title>car-icon</title><g fill-rule="nonzero" fill="none"><circle fill="#EBEBEB" cx="150" cy="150" r="150"/><g fill="#1B193D"><path d="M265.46 161.096c-18.295-22.095-51.384-19.326-77.513-15.674-.055-.277-.1-.553-.155-.83-2.837-15.621-2.637-32.232-12.92-45.532-9.619-12.437-26.296-18.102-42.108-18.102h-1.109c-1.817 0-3.623.15-5.43.341-13.72 1.356-26.383 7.703-35.392 17.74-10.428 11.98-12.223 26.663-12.644 41.655l-1.108.17c-19.88 3.28-49.277 6.539-51.05 30.795-2.006 27.387 35.78 23.714 53.698 19.497 1.179-.332 1.993-1.365 2.006-2.545-.798-9.125 3.324-20.104 14.406-20.774 11.878-.714 13.297 11.095 13.397 19.752.023 1.46 1.25 2.64 2.77 2.662h73.578c1.525-.012 2.758-1.197 2.77-2.662-.842-7.614 3.048-21.456 12.866-22.255 12.532-1.065 14.261 15.174 14.77 23.426.024 1.46 1.25 2.64 2.771 2.662l26.118-.884c6.239-.213 14.04.714 19.447-2.95 9.386-6.43 7.114-18.932.831-26.492zm-8.51 23.565c-5.974.883-12.323.543-18.351.745l-17.043.575c-1.108-11.425-5.108-26.248-19.69-26.099-12.19.139-18.839 14.45-18.927 25.002h-67.983c-.61-11.116-4.765-23.053-18.838-22.414-13.208.586-20.145 12.49-20.023 24.011-15.89 3.301-51.029 6.219-43.892-18.325 5.396-18.55 31.027-19.72 47.549-22.361 1.303.473 2.773-.004 3.512-1.14a2.51 2.51 0 0 0 .344-1.256c.332-14.652 1.274-29.56 11.735-41.144 8.112-8.847 19.397-14.428 31.603-15.632a54.718 54.718 0 0 1 6.216-.33h.477c15.513.202 31.559 6.389 39.426 19.848 7.037 12.011 6.981 26.078 9.309 39.398.073.497.162.998.265 1.502a2.835 2.835 0 0 0 .39 2.912 3.106 3.106 0 0 0 2.824 1.123c22.85-3.3 49.865-6.92 69.49 7.944 4.432 3.322 8.676 7.71 9.862 13.15 1.363 5.857-1.862 11.554-8.234 12.49h-.022z"/><path d="M264.595 187.546c-5.407 3.663-13.209 2.737-19.447 2.95l-26.118.884c-1.52-.023-2.747-1.202-2.77-2.662-.51-8.274-2.217-24.491-14.772-23.426-9.817.798-13.707 14.64-12.865 22.254-.012 1.466-1.245 2.65-2.77 2.662h-73.578c-1.52-.022-2.747-1.201-2.77-2.662-.067-8.657-1.519-20.465-13.398-19.752-11.014.67-15.17 11.65-14.405 20.775-.007 1.193-.833 2.239-2.028 2.566-17.918 4.259-55.705 7.89-53.699-19.497 1.806-24.246 31.16-27.504 51.106-30.784l1.108-.17c.477-14.982 2.283-29.666 12.755-41.613 8.995-10.026 21.635-16.372 35.337-17.74a61.653 61.653 0 0 1 5.43-.34h1.108c15.768 0 32.445 5.643 42.108 18.101 10.283 13.3 10.084 29.91 12.92 45.532.056.276.1.553.156.83 26.129-3.652 59.217-6.389 77.567 15.674 6.172 7.528 8.444 20.03-.975 26.418z"/></g><g fill="#FCB14B"><path d="M251.97 164.099c-.195-1.873-1.457-3.487-3.277-4.19-1.82-.704-3.897-.38-5.39.84-1.358 1.135-1.902 2.923-1.394 4.58.27.782.802 1.457 1.515 1.918.16.227.342.44.542.636 3.084 2.915 8.39.222 8.003-3.784zM51.968 162.18a4.529 4.529 0 0 0-1.106-1.346 2.18 2.18 0 0 0-.906-.795 6.424 6.424 0 0 0-1.78-.509 5.813 5.813 0 0 0-1.105-.117c-1.98-.003-3.809 1.007-4.798 2.65a4.148 4.148 0 0 0 .088 4.081c1.371 3.626 6.744 4.611 9.176 1.315a5.115 5.115 0 0 0 .43-5.279zM291.258 183.38c-11.21 11.861-27.095 17.172-43.246 19.504-19.412 2.798-39.466 1.982-58.966.72-21.159-1.367-42.273-3.55-63.388-5.458-18.671-1.696-37.43-3.954-56.202-3.975-19.102 0-38.227 2.777-55.008 11.946-3.095 1.685-.31 6.265 2.786 4.58 33.109-18.074 74.663-10.304 110.613-7.05 39.642 3.594 81.075 10.049 120.817 4.484 17.334-2.427 34.49-8.279 46.518-20.988 2.366-2.565-1.526-6.318-3.924-3.763z"/></g><g fill="#2A5FEF"><path d="M212.196 183.133c-.12 5.888-4.568 11.68-10.82 12.395-7.31.832-12.594-5.728-11.67-12.437.55-4.075 3.39-8.427 7.255-10.144.52-.46 1.19-.728 1.893-.758 3.468-.213 7.255-.085 9.908 2.347 2.322 2.283 3.565 5.395 3.434 8.597zM94.56 196.712c-12.01 1.568-12.648-14.805-5.316-20.736.099-1.04.853-1.911 1.893-2.187 15.081-4.522 18.461 20.971 3.424 22.923zM126.793 87.839c-.235.71-.44 1.42-.637 2.13-4.134 14.804-1.49 30.349-3.664 45.454-.314 2.18-.421 5.278-2.479 6.638-2.058 1.36-5.879.91-8.377 1l-24.132 1.329-1.235.07a1.982 1.982 0 0 1-1.802 0 1.961 1.961 0 0 1-1.176-.85l-.265-.2a2.574 2.574 0 0 1-.98-2.549l.98-.16c.422-14.065 2.019-27.85 11.278-39.067 7.955-9.402 19.127-15.351 31.235-16.634 1.036.513 1.564 1.708 1.254 2.839z"/></g><path d="M183 146.878a6.733 6.733 0 0 1-3.06.85c-.6 0-1.21 0-1.819.052-6.779.093-13.817-.902-20.526-1.46a524.893 524.893 0 0 1-22.275-2.363c-1.365-.038-2.463-1.175-2.5-2.589l.9-51.2V87.6a2.88 2.88 0 0 1-.37-2.6c14.227 0 29.274 5.49 37.992 17.609 9.278 12.916 9.099 29.074 11.658 44.27z" fill="#2EC1ED"/></g></svg>