<svg width="300" height="300" viewBox="0 0 300 300" xmlns="http://www.w3.org/2000/svg"><title>credit-icon</title><g fill-rule="nonzero" fill="none"><circle fill="#EBEBEB" cx="150" cy="150" r="150"/><path d="M41 90.867L259.01 86l.358 122.512-208.859 5.62z" fill="#FFF"/><path d="M44 111.24L257.434 100v36.529l-211.32 5.058z" fill="#2A5FEF"/><path d="M241 152.252c-2.388 4.384-6.974 6.328-11.623 6.744a11.218 11.218 0 0 1-5.283-.607c2.113-2.248 3.635-4.956 3.508-7.867-.222-5.036-5.653-6.744-9.235-4.227-3.402 2.428-4.1 7.52-2.599 11.386a21.64 21.64 0 0 1-4.807 1.765c-2.073.39-4.208.124-6.14-.764 3.593-2.563 7.312-7.677 3.604-11.993-2.938-3.372-8.073-1.81-10.292 1.697-1.469 2.403-1.91 5.357-1.215 8.126a20.095 20.095 0 0 1-5.526 1.124h-.2l.073-.067c3.297-3.372 5.39-9.756.994-13.252-4.396-3.495-9.235.585-11.042 5.024-1.648 4.047-1.659 7.036-.623 9.16a14.607 14.607 0 0 1-6.509 1.979c1.79-1.833 3.047-4.173 3.624-6.744.93-4.71-2.039-9.767-7.005-8.61-4.966 1.158-7.396 7.003-6.9 11.87.098 1.068.315 2.12.645 3.135-3.424 1.675-7.396 2.552-10.566 1.214a6.328 6.328 0 0 1-.687-.326c3.233-2.91 6.741-7.631 4.385-11.891s-8.125-3.484-10.936-.225c-2.53 3.017-3.167 7.33-1.627 11.026a29.559 29.559 0 0 1-6.52 2.248c-2.345.607-4.78.71-7.163.304a8.493 8.493 0 0 1-1.437-.461 14.674 14.674 0 0 0 2.884-6.306c.962-5.001-1.479-10.115-6.91-8.452-4.416 1.338-6.825 6.744-5.843 11.375.252 1.197.7 2.338 1.321 3.372-.754.35-1.527.654-2.314.91a20.73 20.73 0 0 1-9.51.989 18.024 18.024 0 0 0 2.98-4.035c1.955-3.664 3.17-10.183-1.12-12.7-4.533-2.63-10.006 3.708-11.622 7.586-1.617 3.878-1.374 6.856 0 9.06-.55.213-1.057.392-1.617.55-2.8.832-7.09 1.495-9.795.146 3.519-3.001 8.062-8.497 5.368-13.42-4.639-8.509-14.275 3.18-13.07 11.948a14.996 14.996 0 0 1-7.45 1.708 5.824 5.824 0 0 1-1.616-.438 18.445 18.445 0 0 0 3.93-5.766c1.881-4.429.719-10.903-4.427-11.982-5.948-1.247-8.822 5.395-9.023 10.554a15.812 15.812 0 0 0 1.057 6.53 20.748 20.748 0 0 1-4.227 1.473c-3.318.787-1.912 6.204 1.405 5.417a25.02 25.02 0 0 0 6.245-2.416 11.06 11.06 0 0 0 3.983 1.832c4.285.874 8.721.19 12.595-1.944 3.92 3.9 11.031 3.18 15.85 1.933 2.018-.526 3.97-1.31 5.81-2.338a25.757 25.757 0 0 0 15.754.697 20.952 20.952 0 0 0 4.945-2.248 15.41 15.41 0 0 0 7.217 2.315c5.437.134 10.813-1.246 15.595-4.001 5.062 4.159 13.377 3.743 19.928.427 4.448 2.372 11.348.37 16.79-2.675 4.014 1.405 9.688.854 14.39-.764.198.224.409.438.634.64 4.47 4.125 11.232 3.844 16.43 1.686.983-.417 1.937-.91 2.853-1.472 3.286 2.338 7.798 2.72 11.623 2.248 5.98-.787 11.517-3.63 14.613-9.295 1.722-3.159-2.843-6.047-4.554-2.912zm-171.381.18c4.955.495-1.29 7.261-2.388 8.228-.666-1.147-.38-8.441 2.388-8.228zm18.955.776c2.536.933-1.437 4.72-1.564 4.855-.338.383-.708.742-1.056 1.124v-.55c.148-.855.708-6.137 2.62-5.44v.01zm17.867.899c2.378-2.551 2.769-.348 1.818 2.124a11.06 11.06 0 0 1-3.445 4.496c-1.11-2.034-.253-4.62 1.627-6.631v.011zm18.903 1.124c.814-1.99 2.04-1.203 1.764.663a6.48 6.48 0 0 1-1.479 2.653 3.555 3.555 0 0 1-.285-3.327v.011zm24.302-.978c.486-1.55 1.056-2.45 2.113-1.439 1.437 1.45-.95 2.9-2.008 3.867l-.169.146a4.603 4.603 0 0 1 .022-2.574h.042zm19.6 0c-.064-1.056 1.796-6.496 3.465-2.686.708 1.63-2.778 4.867-3.592 5.541-.328-.922.095-1.81.095-2.922l.032.067zm16.641-2.08c.55-1.696.983-4.225 2.642-3.281 2.176 1.236-1.162 5.058-2.705 6.204a4.25 4.25 0 0 1 .021-2.99l.042.068zm17.498-1.505c2.324.09-.117 2.248-1.406 3.27.085-1.168.603-3.36 1.363-3.327l.043.057zm17.032 3.462c0-.596-.518-5.62 1.733-4.17.898.584-.634 3.72-1.659 4.72a5.653 5.653 0 0 1-.116-.618l.042.068z" fill="#FCB14B"/><path d="M63.62 198.09c18.46 1.124 158.639-6.328 177.51-7.677.554-.041.984-.533.982-1.124v-13.162c0-.62-.473-1.124-1.056-1.124a2479.893 2479.893 0 0 0-180.067 6.272c-.288.02-.557.164-.742.4a1.174 1.174 0 0 0-.24.848l1.405 13.353c.123 1.215 1.06 2.154 2.208 2.214z" fill="#2AC1EF"/><path d="M260.52 84.787a2.568 2.568 0 0 0-.532-1.805 2.273 2.273 0 0 0-1.58-.87 2.511 2.511 0 0 0-.835-.1c-71.997 4.27-144.216-.315-216.139 5.62a2.577 2.577 0 0 0-1.416.55c-1.108.263-1.84 1.389-1.68 2.585 3.17 42.07 6.107 81.802 9.72 123.827.307 3.575 5.685 1.979 5.675 1.799 67.908-5.305 201.59-4.17 205.647-5.036 5.43-.19-.55-86.287 1.14-126.57zM53.227 210.773a11533.135 11533.135 0 0 1-9.457-117.736c70.338-5.54 140.951-1.292 211.32-5.282-1.542 39.339-.316 78.801 1.057 118.174-67.59 3.225-135.382-.472-202.92 4.844z" fill="#1B193D"/></g></svg>