<svg width="300" height="300" viewBox="0 0 300 300" xmlns="http://www.w3.org/2000/svg"><title>medical-icon</title><g fill-rule="nonzero" fill="none"><circle fill="#EBEBEB" cx="150" cy="150" r="150"/><path d="M267.516 127.259c-13.957-8.212-27.982 8.765-34.961 19.862-8.788 13.983-13.21 30.37-18.255 46.133-5.452 16.977-12.261 33.027-25.62 44.618-11.095 9.618-31.94 20.535-42.81 4.436-4.694-6.961-5.78-16.183-6.922-24.443a5568.65 5568.65 0 0 1-4.038-29.589c8.436-1.959 16.404-5.736 23.413-11.097 19.138-14.62 32.575-37.705 38.773-61.679a107.853 107.853 0 0 0 2.375-43.391c-.984-6.408-1.98-12.913-8.63-14.849-7.521-2.188-16.4-2.068-24.125-2.02-7.273 0-7.296 12.024 0 12.024a131.25 131.25 0 0 1 15.337.733c2.262.252 4.524-.108 5.384 1.347 1.13 1.9 1.13 5.927 1.436 8.175a92.837 92.837 0 0 1-1.572 29.83c-4.018 19.356-13.026 37.14-26.015 51.362-12.871 13.803-29.577 21.414-48.002 18.96-17.735-2.404-36.568-12.647-46.657-28.698-6.04-9.619-8.245-21.089-10.485-32.222-1.3-6.457-2.488-12.925-3.63-19.418-.849-4.809-2.545-10.424-2.975-15.63 4.977-1.947 11.458-2.404 16.242-2.85 7.171-.769 7.25-12.792 0-12.022a98.054 98.054 0 0 0-20.28 3.931c-6.549 2.152-7.917 5.615-6.786 12.564 2.386 14.813 4.976 29.637 8.189 44.282 2.793 12.756 7.035 24.599 15.19 34.59 7.691 9.414 17.893 16.4 28.638 21.185 10.43 4.73 21.72 6.932 33.05 6.444l3.79 27.762c1.13 8.163 2.17 16.363 5.202 24.046 6.12 15.474 20.269 22.928 35.708 20.175 16.072-2.874 31.025-15.715 40.549-29.253 10.293-14.644 14.975-32.63 20.46-49.68 3.032-9.437 6.46-18.78 11.413-27.292 2.726-4.689 12.442-19.862 19.443-18.48l.532.241 2.262.914c6.074 2.405 9.908-7.755 4.377-11.001z" fill="#2A5FEF"/><path d="M266.443 116.483c-3.284.275-6.31 2.03-8.333 4.834-3.494 4.652-4.827 11.95-1.736 17.23 6.093 10.404 21.639 7.02 24.752-4.325 2.767-10.114-5.846-19.95-14.683-17.739z" fill="#2AC1EF"/><path d="M270.6 126.823c-2.13-2.277-5.583-2.277-7.713 0-1.003 1.11-1.572 2.587-1.592 4.13v.409c.015 1.544.586 3.022 1.592 4.13 2.13 2.277 5.583 2.277 7.713 0 1.003-1.11 1.572-2.587 1.593-4.13V131c-.005-1.56-.576-3.058-1.593-4.177z" fill="#FCB14B"/><g fill="#1B193D"><path d="M93.449 60.267c-4.083-9.287-15.753-15.515-24.596-9.674-.306.205-.6.447-.894.677a5.512 5.512 0 0 0-2.43.798c-9.127 5.49-12.61 17.583-6.933 27.258 5.236 8.936 17.924 11.863 26.462 6.905 8.538-4.958 12.563-16.495 8.39-25.964zM149.482 38.838c-9.5 3.52-18.388 17.837-14.396 28.358 1.414 5.696 5.42 10.244 10.653 12.093 5.654 2.177 13.4 3 19.02.472 5.983-2.697 9.047-9.058 9.93-15.721 2.08-15.48-9.997-30.85-25.207-25.202z"/></g><g fill="#FFF"><path d="M82.929 65.725c-.626-2.314-2.23-4.201-4.356-5.123a7.233 7.233 0 0 0-6.547.396A6.398 6.398 0 0 0 69.436 64a8.252 8.252 0 0 0-.78 6.524c.556 2.112 1.95 3.874 3.831 4.84a7.043 7.043 0 0 0 6.008.218c3.588-1.709 5.464-5.88 4.434-9.857zM161.27 55.396c-1.026-2.074-3.028-3.424-5.26-3.545a4.29 4.29 0 0 0-.995-.378 6.318 6.318 0 0 0-4.354.59c-1.839 1-3.196 2.757-3.743 4.846a9.32 9.32 0 0 0 0 5.13c.665 2.312 2.293 4.187 4.43 5.104a7.373 7.373 0 0 0 6.585-.378c3.796-2.287 5.252-7.251 3.337-11.369z"/></g></g></svg>