<svg width="300" height="300" viewBox="0 0 300 300" xmlns="http://www.w3.org/2000/svg"><title>mortgage-icon</title><g fill-rule="nonzero" fill="none"><circle fill="#EBEBEB" cx="150" cy="150" r="150"/><path d="M278.231 152.552c-1-1-2.53-2-3.13-3.35-1.26-2.75.18-4.71.86-7.22a12.63 12.63 0 0 0 0-7.6c-1-3.21-3.58-6.13-3.82-9.57-.29-4.06 2.52-7.74 2.12-11.89-.42-4.32-4.15-7.74-8.4-6.75a13.77 13.77 0 0 0-10.46 6.06c-3 4.53-1.41 9.84-5.08 14.09-2.56 3-5.82 5.55-6.92 9.48-.7 2.53-.2 5 .22 7.52a15.71 15.71 0 0 1-1.61 10.4c-2 4.28-4.9 8.58-5 13.48a9.07 9.07 0 0 0 1.67 5.71c1.73 2.28 3.66 2.43 4.67 4.81-2.49 11.51 10 18.9 20.61 17 5.55-1 13.11-4.06 15.76-9.51 1.48-3 .44-5.34.47-8.53 0-3.41 2.33-6.29 3.18-9.51 1.59-5.91-1.01-10.64-5.14-14.62z" fill="#2A5FEF"/><path d="M214.47 46.347c-1.481 2.81-1.003 4.85.079 7.7 1.293 3.422 1.928 6.74.839 10.32a14.953 14.953 0 0 1-5.41 7.462c-1.85 1.461-3.793 2.707-4.703 5.018-.65 1.722-.501 3.746-.423 5.556.196 4.978.713 14.226-6.467 14.591-1.458.072-2.352-.555-3.512-1.286-1.293-.793-2.124-1.492-3.708-1.65-.596-.056-1.16.087-1.772 0-2.586-.366-3.974-2.43-3.645-5.034.298-2.278 1.49-4.509 2.195-6.684.285-.66.49-1.354.612-2.064.172-3.175-1.443-2.834-3.253-3.7-2.203-1.047-3.85-2.444-4.194-5.017-.447-3.342 1.567-6.461 3.692-8.803 1.34-1.477 3.135-2.866 3.966-4.763 1.184-2.74-.462-4.319-2.422-5.946-2.446-2.025-4.758-3.874-5.276-7.24a10.675 10.675 0 0 1 1.466-6.724c.06-.349.205-.677.424-.953 5.173-6.613 13.483-11.447 22.012-11.114 7.439.326 15.278 6.708 12.432 14.94-.666 1.993-1.944 3.565-2.932 5.39z" fill="#FCB14B"/><path d="M73.306 142.338c-4.44 9.08-28.94 14.24-39.08 3.5-7-7.46-4.84-20-1.69-28.74 1.38-3.85 4.12-8.16 2.44-12.25-.92-2.24-2.79-3.8-3.15-6.31-.62-4.34 2.15-8.35 4.92-11.72a16.43 16.43 0 0 0 4-8.32c.39-2.73-1.25-6.44-1-9.33.92-10.67 17.4-10.15 21.58-2.69 3 5.36 1.23 8.47.68 13.37-.4 3.48 2.47 5.52 3.35 8.62a11.93 11.93 0 0 1-.09 5.89c-.56 2.43-1.9 4.88-2.13 7.36-.39 4 2.12 5.45 4.49 8.26 4.13 4.9.79 10.29 3.2 15.53 2.18 4.82 5.07 11.44 2.48 16.83z" fill="#2AC1EF"/><g fill="#1B193D"><path d="M46.445 138.745c.53 2.4 1.27 6.3 4.15 6.57-.15-4.48-.31-9-.45-13.45-4.85-.73-6.83-6.13-8.16-10.3-1-3.07 3.84-4.39 4.82-1.33a27.11 27.11 0 0 0 1.75 4.34 6.29 6.29 0 0 0 1.44 2.11c-.146-4.847-.286-9.693-.42-14.54a6.77 6.77 0 0 1-3.9-2.1c-1.79-1.94-2.31-4.57-2.37-7.13-.08-3.22 4.92-3.22 5 0 0 1 .24 3 1.14 3.9-.146-5.693-.283-11.387-.41-17.08a12.31 12.31 0 0 1-7.36-11.32c0-3.22 5-3.22 5 0a7.38 7.38 0 0 0 2.29 5.39c.53-2.59 4.88-2.39 4.94.61.08 3.92.19 7.85.28 11.77a3.34 3.34 0 0 0 1.63-3.58c-.65-3.14 4.17-4.48 4.82-1.33a8.36 8.36 0 0 1-6.32 10.08c.147 5.953.307 11.907.48 17.86a5.16 5.16 0 0 0 2.74-5.34c-.28-3.2 4.72-3.19 5 0a9.91 9.91 0 0 1-7.6 10.48c.12 4.107.247 8.217.38 12.33a7.44 7.44 0 0 0 1.57-4.81c-.08-3.22 4.92-3.22 5 0a12.48 12.48 0 0 1-6.35 11.18 4917.387 4917.387 0 0 0 1.82 48.57c.14 3.22-4.86 3.21-5 0a4271.518 4271.518 0 0 1-1.56-41.33c-5.57.22-8.11-5.64-9.14-10.27-.77-3.09 4.09-4.43 4.79-1.28zM266.126 176.785c-.53 2.4-1.27 6.3-4.15 6.57.15-4.48.31-9 .45-13.45 4.85-.73 6.83-6.13 8.16-10.3 1-3.07-3.84-4.39-4.82-1.33a27.11 27.11 0 0 1-1.75 4.34 6.29 6.29 0 0 1-1.44 2.11c.146-4.847.286-9.693.42-14.54a6.77 6.77 0 0 0 3.9-2.1c1.79-1.94 2.31-4.57 2.37-7.13.08-3.22-4.92-3.22-5 0 0 1-.24 3-1.14 3.9.146-5.693.283-11.387.41-17.08a12.31 12.31 0 0 0 7.36-11.36c0-3.22-5-3.22-5 0a7.38 7.38 0 0 1-2.29 5.39c-.53-2.59-4.88-2.39-4.94.61-.08 3.92-.19 7.85-.28 11.77a3.34 3.34 0 0 1-1.63-3.58c.65-3.14-4.17-4.48-4.82-1.33a8.36 8.36 0 0 0 6.32 10.14 3991.67 3991.67 0 0 1-.48 17.86 5.16 5.16 0 0 1-2.74-5.29c.28-3.2-4.72-3.19-5 0a9.91 9.91 0 0 0 7.6 10.48c-.12 4.107-.247 8.217-.38 12.33a7.44 7.44 0 0 1-1.55-4.82c.08-3.22-4.92-3.22-5 0a12.48 12.48 0 0 0 6.35 11.18 4917.416 4917.416 0 0 1-1.82 48.57c-.14 3.22 4.86 3.21 5 0 .586-13.773 1.106-27.55 1.56-41.33 5.57.22 8.11-5.64 9.14-10.27.71-3.15-4.11-4.49-4.81-1.34zM228.922 187.292c-2.255 1.18-5.716 1.053-8.22 1.39l-10.406 1.39-2.064 41.65-1.037 20.91c-.18 3.484-.327 6.97-.519 10.454-.112 1.958 0 4.212-1.206 5.886-2.661 3.59-9.155 2.284-13.113 2.295H106.013c-3.958 0-10.452 1.295-13.124-2.295-1.24-1.674-1.128-3.928-1.195-5.886-.192-3.485-.35-6.97-.519-10.455l-1.037-20.909c-.684-13.89-1.376-27.774-2.075-41.65l-10.407-1.39c-2.491-.327-5.964-.21-8.22-1.39-4.317-2.243-1.893-6.686-.337-9.855 5.705-11.686 14.51-22.436 22.55-32.785 16.617-21.308 35.136-41.264 55.36-59.654l.26-.243.225-.179c.116-.083.236-.16.36-.231a4.46 4.46 0 0 1 .52-.221c.183-.055.372-.094.563-.116.173-.01.346-.01.519 0 .179.027.356.066.53.116.273.086.532.21.766.368a2 2 0 0 1 .35.263c.101.085.191.18.293.274a485.307 485.307 0 0 1 28.91 28.606v-9.697c.017-1.446 1.269-2.615 2.818-2.632l14.59.937c1.544.028 2.788 1.19 2.818 2.632.294 10.746.369 21.5.226 32.26a400.265 400.265 0 0 1 6.02 7.548c8.062 10.35 16.913 21.057 22.55 32.786 1.49 3.137 3.925 7.58-.405 9.823z"/></g><g fill="#FFF"><path d="M184.499 181.937c-.336-1.143-1.448-1.936-2.718-1.937-1.95.074-5.243-.053-8.264.316l-6.517.116c-.9.01-1.74.424-2.257 1.113a2.467 2.467 0 0 0-.348 2.361l.057 12.824c0 3.537-1.128 9.254.18 12.56.484 1.428 1.892 2.407 3.495 2.432 4.612.537 10.283-.779 14.917-1.147 1.54-.039 2.778-1.195 2.819-2.633a128.36 128.36 0 0 0-1.364-26.005zM126.764 181.347c-1.342-1.19-3.8-1.053-5.536-1.284-3.642-.453-7.284-.769-10.949-1.053a2.724 2.724 0 0 0-1.465.284c-1.197.274-2.041 1.271-2.052 2.422l-1.06 25.068c-.723.768-.905 1.858-.465 2.795.44.937 1.422 1.55 2.517 1.574l16.416.663c1.004-.012 1.926-.518 2.426-1.33.5-.814.504-1.812.01-2.628v-.074c.237-.98.391-1.977.462-2.98.451-3.41.77-6.836.958-10.275.147-3.464 1.804-10.444-1.262-13.182zM149.612 109.464c-6.36-2.326-11.895 4.58-8.66 9.855 3.45 5.612 13.204 4.211 14.602-2.106 1.533-7.043-9.46-10.465-13.203-4.422-1.66 2.719-.742 6.176 2.086 7.855a6.155 6.155 0 0 0 4.634.548c1.56-.432 2.852-1.457 3.563-2.823 1.668-3.221-1.128-7.37-5.063-6.885-3.935.484-4.972 4.674-2.74 7.212 1.107 1.02 2.885 1.02 3.992 0a2.559 2.559 0 0 0 0-3.727c.751 1.228.33 1.716-1.263 1.463v-.263c-.102 0-.079-.084 0 0-.192-.474-.654-.684.079-1.2a1.54 1.54 0 0 1 1.482-.165c.489.204.818.642.857 1.141.04.499-.218.977-.67 1.245a2.378 2.378 0 0 1-2.075.41c-.722-.194-1.292-.71-1.522-1.378-.406-1.527 1.127-2.19 2.458-1.695 3.382 1.231 4.848-3.854 1.5-5.075l-.057.01zM168.853 271.312h-5.57l-.067.064v-.064H132.266c-.958-12.097-.226-35.365 17.87-35.312 17.59.063 18.357 23.594 18.717 35.312z"/></g></g></svg>