<svg width="300" height="300" viewBox="0 0 300 300" xmlns="http://www.w3.org/2000/svg"><title>other-icon</title><g fill-rule="nonzero" fill="none"><circle fill="#EBEBEB" cx="150" cy="150" r="150"/><path d="M32.965 226.504S31.532 75.562 70.809 77.621c39.276 2.058 27.051 146.276 45.696 147.253 18.644.977-83.54 1.63-83.54 1.63z" fill="#FCB14B"/><path d="M125.89 220.446s-2.455-117.85 33.855-115.948c36.31 1.903 27.463 102.128 36.26 116.948.156.259-70.114-1-70.114-1z" fill="#2AC1EF"/><path d="M205.776 216.502s-3.325-79.854 28.231-78.2c31.557 1.654 24.93 69.45 32.73 79.582.133.147-60.961-1.382-60.961-1.382z" fill="#2A5FEF"/><g fill="#1B193D"><path d="M276.595 148.267l-1.088-8.87c-.393-3.184-5.277-2.098-4.883 1.077l.764 6.258c.153 1.29.55 2.863.665 4.32a33.45 33.45 0 0 1-4.43-.111 43.14 43.14 0 0 1-5.586-.623c-3.165-.547-3.398 4.458-.261 4.993a41.89 41.89 0 0 0 8.138.637c1.885-.052 5.113.268 6.468-1.334 1.356-1.6.436-4.493.213-6.347zM259.791 137.002a3.79 3.79 0 0 0-4.208 3.865 4 4 0 0 0 1.644 3.21 3.49 3.49 0 0 0 2.183.585c.181.055.367.095.554.12a3.38 3.38 0 0 0 3.468-2.352c.905-2.556-1.136-5.076-3.64-5.428zM245.04 125.544a3.79 3.79 0 0 0-4.207 3.865 4 4 0 0 0 1.644 3.21 3.49 3.49 0 0 0 2.182.586c.181.055.367.095.555.119a3.38 3.38 0 0 0 3.468-2.352c.904-2.546-1.136-5.076-3.641-5.428zM226.326 125.905a3.79 3.79 0 0 0-4.208 3.865 4 4 0 0 0 1.644 3.21 3.49 3.49 0 0 0 2.183.586c.18.055.366.095.554.119a3.38 3.38 0 0 0 3.458-2.352c.915-2.556-1.126-5.066-3.63-5.428zM206.18 128.184a3.79 3.79 0 0 0-4.209 3.865 4 4 0 0 0 1.644 3.21 3.49 3.49 0 0 0 2.183.586c.181.054.367.094.554.119a3.38 3.38 0 0 0 3.468-2.352c.905-2.556-1.136-5.076-3.64-5.428zM196.302 112.976a3.79 3.79 0 0 0-4.208 3.865 4 4 0 0 0 1.644 3.21 3.49 3.49 0 0 0 2.182.586c.181.055.367.094.555.119a3.38 3.38 0 0 0 3.468-2.352c.894-2.546-1.146-5.077-3.641-5.428zM189.242 97.886a3.79 3.79 0 0 0-4.208 3.865 4 4 0 0 0 1.644 3.21 3.49 3.49 0 0 0 2.182.586c.182.054.367.094.555.119a3.38 3.38 0 0 0 3.456-2.313c.917-2.595-1.124-5.115-3.63-5.467zM179.18 86.013a3.79 3.79 0 0 0-4.209 3.865 4 4 0 0 0 1.644 3.21 3.49 3.49 0 0 0 2.183.586c.181.055.367.094.554.119a3.38 3.38 0 0 0 3.468-2.352c.907-2.586-1.135-5.086-3.64-5.428zM160.754 81.042a3.79 3.79 0 0 0-4.208 3.865 4 4 0 0 0 1.574 3.207 3.49 3.49 0 0 0 2.183.585c.181.055.367.095.554.12a3.38 3.38 0 0 0 3.468-2.353c.967-2.583-1.075-5.083-3.57-5.424zM138.348 83.48a3.79 3.79 0 0 0-4.208 3.864 4 4 0 0 0 1.574 3.207 3.49 3.49 0 0 0 2.182.585c.181.055.367.095.555.12a3.38 3.38 0 0 0 3.468-2.352c.966-2.583-1.076-5.084-3.571-5.425zM113.765 85.92a3.79 3.79 0 0 0-4.208 3.865 4 4 0 0 0 1.644 3.21 3.49 3.49 0 0 0 2.182.585c.181.055.367.095.555.12a3.38 3.38 0 0 0 3.455-2.313c.917-2.596-1.123-5.116-3.628-5.468zM101.22 70.572a3.79 3.79 0 0 0-4.207 3.865 4 4 0 0 0 1.573 3.217 3.49 3.49 0 0 0 2.183.585c.181.055.366.095.554.119a3.38 3.38 0 0 0 3.468-2.352c.965-2.553-1.075-5.083-3.57-5.434zM82.395 60.243a3.79 3.79 0 0 0-4.208 3.865 4 4 0 0 0 1.645 3.21 3.49 3.49 0 0 0 2.182.585c.181.055.367.095.554.12a3.38 3.38 0 0 0 3.456-2.313c.917-2.596-1.124-5.116-3.629-5.467zM57.77 58.952a3.79 3.79 0 0 0-4.209 3.865 4 4 0 0 0 1.574 3.217 3.49 3.49 0 0 0 2.182.585c.182.055.367.095.555.119a3.38 3.38 0 0 0 3.516-2.32c.917-2.595-1.124-5.115-3.619-5.466z"/></g></g></svg>