<svg width="300" height="300" viewBox="0 0 300 300" xmlns="http://www.w3.org/2000/svg"><title>personal-icon</title><g fill-rule="nonzero" fill="none"><circle fill="#EBEBEB" cx="150" cy="150" r="150"/><path d="M169.16 53c-6.73-7.72-18.92-8.33-26.59-1.56a20 20 0 0 0-2.49 2.56 19.6 19.6 0 0 0-4.35 8.39c-2.46 10.31 2.17 22.41 11.77 27.38a18.24 18.24 0 0 0 25.34-8.59c3.94-8.82 2.76-20.84-3.68-28.18z" fill="#FCB14B"/><g fill="#2A5FEF"><path d="M219.65 62.77a10.32 10.32 0 0 0-3.65-3.29l-.43-.21a2.53 2.53 0 0 0-.93-.46l-.65-.16a10.47 10.47 0 0 0-1.86-.38c-11.3-1.92-26.56 2.54-30.34 14-3.58 10.86 1.93 23.76 12.41 28.43 10.28 4.58 23.21 1 29.23-8.57 5.48-8.69 4.96-22.82-3.78-29.36zm-13.88 1.16l.13.18-.31.09a17 17 0 0 0-4.18.07 27 27 0 0 1 4.35-.35l.01.01z"/><path d="M188 28.81c-1.18-3-6-1.66-4.82 1.33a111 111 0 0 1 6.09 57.95c-3.28 19.09-11.8 36.71-20.2 54-1.4 2.88 2.91 5.42 4.32 2.52 8.83-18.15 17.9-36.78 21-56.93 2.97-19.17.87-40.85-6.39-58.87z"/></g><path d="M185.89 13.57a2.63 2.63 0 0 0-.26-.09c-10.88-2.4-20 6.18-20.75 16.86s6.76 20.77 17.55 22.16a18.87 18.87 0 0 0 21.41-16.28c1.26-10.22-7.56-21.58-17.95-22.65z" fill="#2AC1EF"/><g fill="#19173B"><path d="M179.29 24.06a2.54 2.54 0 0 0-2.5 2.5v.67a2.5 2.5 0 0 0 5 0v-.67a2.53 2.53 0 0 0-2.5-2.5zM180.62 34.73c-3.22 0-3.22 5 0 5s3.22-5 0-5zM188 26.73a2.54 2.54 0 0 0-2.5 2.5v.67a2.5 2.5 0 1 0 5 0v-.67a2.53 2.53 0 0 0-2.5-2.5z"/></g><g fill="#19173B"><path d="M202 74.06c-3.22 0-3.22 5 0 5s3.18-5 0-5zM201.29 81.4a2.54 2.54 0 0 0-2.5 2.5v.67a2.5 2.5 0 1 0 5 0v-.67a2.53 2.53 0 0 0-2.5-2.5zM209.29 77.4a2.54 2.54 0 0 0-2.5 2.5v1.33a2.5 2.5 0 0 0 5 0V79.9a2.53 2.53 0 0 0-2.5-2.5z"/></g><g fill="#19173B"><path d="M146.79 72.56v.67a2.5 2.5 0 1 0 5 0v-.67a2.5 2.5 0 0 0-5 0zM158.62 67.4c-3.22 0-3.22 5 0 5s3.22-5 0-5zM152.62 62.73c-3.22 0-3.22 5 0 5s3.22-5 0-5z"/></g><path d="M181.09 284.28l-.36-.69c-6.55-12.59-7.94-26.88-9.1-40.88a57.77 57.77 0 0 0 4.12-21.38c.07-14.06-3.81-28-2.36-42.07.71-6.88 2.93-13.47 4.65-20.14 1.24-4.83 3.15-10.81 2.24-15.85-.61-3.29-3-6.07-6.57-5.61-.1 0-.2 0-.31.06 1.24-3.36 2.1-7.57-.33-9.88-3.09-3-6.88.24-9.26 2.31-5.74 5-11.3 10.17-16.82 15.39-6 5.69-12 11.47-17.84 17.38-.95-1.48-6.57-25.48-9.2-38.36-2.14-10.5-3.62-20.62-12.06-25.72a2.51 2.51 0 0 0-3.68 2.82c1.92 8.66 5.76 30.13 6.74 38.9-1-1.3-6.31-12.43-8-16-4.5-9.5-8.25-13.5-13.51-14.19-2.44-.37-4.64 1.18-3.44 3.42 4.69 8.68 14.67 34.9 17.82 44.4C96 146.69 89 130.81 74.76 133.65c-2.35.47-2.14 3.42-.6 4.57 16.4 12.26 21.16 38.56 28 57.09.1.27 3-6.15 3.13-6-4.54 6.58-7.33 14.16-.43 19.59.27.22 13.75 21.44 19.39 32.21 6.88 13.13 8.52 26.6 9.19 41.11 0 .51.05 1 .07 1.53 11.09 2.18 32.32 5.14 48.19 1.15a2.59 2.59 0 0 0-.61-.62zM163.7 150.06c-1.32 2.56-15.25 46-23 42.75-3.13-1.31-2.32-10.43 2.25-17.5 4.84-7.47 19.53-23.85 20.75-25.25z" fill="#1A183C"/><path d="M153.48 176a2.93 2.93 0 0 1-2 1.63 14.71 14.71 0 0 1-3.29.39 11.91 11.91 0 0 1-2.34-.21c-3.67-.64-6.81-2.74-10.09-4.6-2.8-1.59-.28-5.9 2.52-4.32 3.86 2.19 7.72 4.32 11.51 3.87a9.6 9.6 0 0 0 5.89-3.17 2.5 2.5 0 0 1 1-.67l-3.2 7.08z" fill="#2A5FEF"/></g></svg>