<svg id="Layer_1" data-name="Layer 1" xmlns="http://www.w3.org/2000/svg" viewBox="0 0 300 300"><defs><style>.cls-1{fill:#ebebeb;}.cls-2{fill:#1b193d;}.cls-3{fill:#2a5fef;}.cls-4{fill:#2ec1ed;}.cls-5{fill:#fcb14b;}</style></defs><title>shopping-icon</title><circle class="cls-1" cx="150" cy="150" r="150"/><path class="cls-2" d="M214,125c1-3.2,2-6.43,3-9.66a20.35,20.35,0,0,1-8.63,1.64c-3.55-.1-8.91-.54-11.83-2.94a10.75,10.75,0,0,1-5.59,3,14.14,14.14,0,0,1-4.34.19,16.79,16.79,0,0,0,9,7.49,35.26,35.26,0,0,0,17.93,1.84C213.71,126,213.88,125.54,214,125Zm-6.11-36.22a2.68,2.68,0,0,0-.36-.41,3.79,3.79,0,0,0-.35-.42l-4.43-4.67,6.75,7.57Z"/><path class="cls-2" d="M195.59,165C184.54,176.1,172,186.09,159.8,195.79q-19.37,15.36-40,29.07a5.18,5.18,0,0,1-7-.54q-12-11.59-23.14-23.93c-1.78-2-8.89-10.23-10.54-12.27Q68.59,175.2,58.92,161.63c-1.74-2.44-1.43-4.9.53-7.05q16.67-18.24,34.76-35.14C105.64,108.8,117.41,98,130,88.71c11.68-8.58,28.36-9.92,42.3-12.22q5.59-.93,11.2-1.7c2.85-.4,6.16-1.25,9-.47s5,3.46,7.05,5.62l3.19,3.37,6.75,7.57.06.06,5.12,6.6c1.83,2.36,4.14,4.72,4.5,7.81s-1,6.09-1.82,8.87c-.11.39-.23.77-.36,1.15a20.35,20.35,0,0,1-8.63,1.64c-3.55-.1-8.91-.54-11.83-2.94a11.09,11.09,0,0,0,2.72-10.68c-.06-.24-.13-.48-.21-.71a13.3,13.3,0,0,0-5.67-7.29,11.87,11.87,0,0,0-8.29-1.65,11.71,11.71,0,0,0-4.57,1.84,11.11,11.11,0,0,0-4.63,14.29,13,13,0,0,0,10.73,7.35,16.79,16.79,0,0,0,9,7.49,35.26,35.26,0,0,0,17.93,1.84C209.36,139.68,205.45,155.14,195.59,165Z"/><path class="cls-3" d="M232.85,116.11a33.56,33.56,0,0,1-19.3,10.45,35.26,35.26,0,0,1-17.93-1.84,16.79,16.79,0,0,1-9-7.49,15.77,15.77,0,0,1,5.28-21.11,5.45,5.45,0,0,1,1.49-.72,13.3,13.3,0,0,1,5.67,7.29,5,5,0,0,1-1.64,1.77c-3.26,2.21-4.29,6.39-1.25,9.29a3.88,3.88,0,0,0,.38.33c2.92,2.4,8.28,2.84,11.83,2.94a20.35,20.35,0,0,0,8.63-1.64,26,26,0,0,0,10.27-8.2c4.32-5.54,8.19-13.87.44-18.29C222,85.62,215.1,88,209.6,90.95l-.06-.06-6.75-7.57c10.61-6,24.29-9.34,34.14.06C247,93,241,107.35,232.85,116.11Z"/><path class="cls-4" d="M192.57,140.44q-13.42-17.72-28.3-34.24-4-4.4-8.06-8.71c-1.85-2-3.73-4.49-6-6-4.38-2.86-7.63.72-10.83,3.61q-33.46,30.23-66.16,61.28a2.68,2.68,0,0,0-.64.91,2.35,2.35,0,0,0,.1,3.73c10,7.42,17.28,17.41,25.41,26.69,7.77,8.86,16.42,16.88,25.08,24.87a2.55,2.55,0,0,0,3.51-.43q32.37-34.88,67.42-67.1A2.69,2.69,0,0,0,192.57,140.44ZM99.71,182c-6.89-8.11-13.49-16.48-21.79-23.18Q106.24,132,135.1,105.71l7.27-6.58c2.84-2.57,4-4.72,7.1-1.52,4.62,4.7,9.06,9.59,13.44,14.51q13.46,15.13,25.66,31.31-33.16,30.65-64,63.69C115.92,199.1,107.38,191,99.71,182Z"/><path class="cls-5" d="M184.79,127.44c-4.94,2.27-12.3,5.18-17.91,4.32a10.9,10.9,0,0,1-2.06-.56c3.2-6.58,3.68-13.79-2.75-17.56a2.08,2.08,0,0,0-2.36.13c-4.24,5-6.26,15.6,1.19,18.92a27,27,0,0,1-3.16,4.8,22.45,22.45,0,0,1-4,3.64,9.8,9.8,0,0,1-4.4,1.68,43,43,0,0,0,1.51-5.27c.89-4.17,2.84-13.17-1.67-16.14-2.7-1.78-5.7-.08-7.33,2.23-4.72,6.67-3.55,19.19,3.46,21.55a32.22,32.22,0,0,1-4.66,7.68c-2.11,2.52-3.23,3-6.25,2.79.22-.79.4-1.55.55-2.25.71-3.46,2.08-26.1-6.16-22.52C124,133,123,143.51,123.4,147.72c.47,4.51,2.47,9.28,7.08,10.73-.2.55-.39,1.1-.62,1.64a35.73,35.73,0,0,1-5.55,9.12,15.44,15.44,0,0,1-3,3.12c-.84.53-8.19.62-9.24,0a4,4,0,0,1-1-.85c.25-.86.5-1.72.73-2.59,1.95-7.14,3.88-15,2.46-22.42-.61-3.16-2.56-8.42-6.68-8-4.67.48-6.49,7-6.79,10.78-.5,6.31,1.8,16.84,7.09,22.78a175,175,0,0,1-7.47,20.21c-.54,1.25,2.41,1.64,2.88.55a178.61,178.61,0,0,0,7-18.58,11.12,11.12,0,0,0,5.62,2.21c8.41.79,14.54-9.32,17.5-17.53,7,.27,12-6.57,14.92-13.4a12.35,12.35,0,0,0,4.35-1.14c3.66-1.64,8-5.92,10.92-10.88,7.41,1.61,17.11-1.89,23.32-4.74C188.46,128.06,185.82,127,184.79,127.44Zm-80.65,19.69a10,10,0,0,1,.83-2.9,2.76,2.76,0,0,1,2.36-2.2q1.82-2,2.37.4c1.57,1.79,1.77,4.95,1.92,7.18A49.24,49.24,0,0,1,110,164c-.34,1.47-.71,2.92-1.1,4.38C104.95,162.3,102.66,154.34,104.14,147.13Zm23.72,6a13.79,13.79,0,0,1-1.22-4,21.75,21.75,0,0,1,1.38-12.3c.24-.58,1.46-3.84,2.48-3.46.77.28,1.43,4.8,1.57,5.51a36.49,36.49,0,0,1-.62,16.52C129.43,155.3,129,155.28,127.86,153.11Zm15.2-12.92c-1.88-3.59-1.53-8.1-.34-11.83a8.41,8.41,0,0,1,1.26-2.92c.41-.46,3.26-2.27,4-1.7,1,.81.79,3.84.82,5a38.53,38.53,0,0,1-2.31,13.57l-.14.37A4.88,4.88,0,0,1,143.06,140.2Zm16.41-13a10.55,10.55,0,0,1-.59-3.94,12.49,12.49,0,0,1,2.47-7.35c3.55,3.3,2.85,9,.84,14A6.83,6.83,0,0,1,159.47,127.24Z"/></svg>