<svg width="300" height="300" viewBox="0 0 300 300" xmlns="http://www.w3.org/2000/svg"><title>student-icon</title><g fill-rule="nonzero" fill="none"><circle fill="#EBEBEB" cx="150" cy="150" r="150"/><path d="M276.806 200.387a1952.8 1952.8 0 0 0-253.41 6.91c-3.18.29-3.21 5.3 0 5a1952.8 1952.8 0 0 1 253.41-6.91c3.22.12 3.21-4.88 0-5z" fill="#1B193D"/><path d="M248.854 118.477c.145 2.243-5.041 4.04-6.11 4.114l-2.943.199-6.6.458a2323.427 2323.427 0 0 1-164.005 5.242H62.77c-.99 0-8.195.385-8.552-2.416A273.202 273.202 0 0 1 52 91.372c0-3.247 4.355-3.854 5.992-1.834l.171-.223a3.344 3.344 0 0 1 2.376-1.24c1.32-.11 2.64-.235 3.959-.334a1565.025 1565.025 0 0 1 114.818-5.453c17.777-.186 35.832-.644 53.622.223 1.755.075 3.497.174 5.279.285.443.025.883.074 1.32.149 4.764.694 6.981 3.359 7.549 8.18 1.161 8.997 1.214 18.267 1.768 27.352z" fill="#2AC1EF"/><path d="M228.308 160.569a3.359 3.359 0 0 1-1.874.67l-4.566.309a2740.82 2740.82 0 0 1-49.451 2.974h-.092a2668.053 2668.053 0 0 1-89.836 3.024h-.488c-1.32 1.4-3.84 1.723-5.002.273a2.588 2.588 0 0 1-.58-1.24 235.544 235.544 0 0 1-3.406-29.31c-.136-1.328.794-2.546 2.178-2.85.535-.847 1.464-1.408 2.507-1.512A1648.29 1648.29 0 0 1 225.048 125c1.808.033 3.265 1.401 3.3 3.098l3.365 27.266c.198 1.685-2.64 4.635-3.405 5.205z" fill="#2A5FEF"/><path d="M235.946 195.17c-1.557.185-3.128.098-4.698.16-2.204 0-4.395.137-6.599.223-42.68 1.426-143.523 6.011-149.277 6.296-1.056 0-4.962-1.462-5.41-2.999a101.47 101.47 0 0 1-3.96-27.674 2.795 2.795 0 0 1 .894-2.138 3.184 3.184 0 0 1 2.273-.85c.435-.208.911-.33 1.4-.358l5.846-.347c1.663-.1 3.339-.199 5.002-.273.171 0 60.365-2.714 90.337-3.061h.092a2096.25 2096.25 0 0 1 49.94 0l6.598.099 5.675.099c1.813.02 3.278 1.396 3.3 3.098.158 7.226 3.721 27.055-1.413 27.724z" fill="#FCB14B"/><g fill="#FFF"><path d="M239.955 123.328l-6.599.458A840.326 840.326 0 0 1 233.158 83c1.756.074 3.498.174 5.28.285.442.024.883.074 1.32.149a849.457 849.457 0 0 0 .197 39.894zM70.033 127.786h-6.427c-.172-1.103-.33-2.094-.383-2.85-.303-4.028-.607-8.056-.963-12.084-.713-8.142-1.703-16.247-3.26-24.278a3.344 3.344 0 0 1 2.376-1.24c1.32-.11 2.64-.235 3.959-.334 1.636 8.551 2.64 17.165 3.47 25.828.476 4.982.832 9.976 1.228 14.958zM183.313 140.042c-4.923-.148-6.757-3.346-11.561-1.871-.555.174-1.017 1.24-1.465 1.326-1.32.149-2.996-1.512-4.223-1.946a4.69 4.69 0 0 0-3.867-.248c-1.874.657-2.006 2.244-3.55 3.136-4.58 2.652-4.29-.868-6.731-2.144-5.847-3.086-9.516 8.242-15.217 3.272-3.115-2.714-7.786 1.66-4.672 4.387 2.527 2.477 6.218 3.583 9.806 2.937a13.702 13.702 0 0 0 5.635-2.615 10.228 10.228 0 0 0 1.663-1.413l.093.112c2.025 2.291 5.205 3.384 8.327 2.863 3.154-.508 4.421-2.74 6.414-4.251 3.141 1.747 5.28 3.408 9.476 1.636 2.719-1.153-.396-1.525 2.64-.459 2.299.888 4.747 1.387 7.232 1.475 4.25.124 4.25-6.073 0-6.197zM218.836 145.777c-.088-5.263-.167-10.526-.237-15.789 0-3.978-6.599-3.99-6.599 0l.185 12.456c0 1.846 0 3.718.092 5.552 0 1.115-.396 3.606.449 3.247-.65 1.18-.432 2.617.541 3.582l.158.185a3.41 3.41 0 0 0 2.336.91 3.41 3.41 0 0 0 2.336-.91c2.112-2.528.792-6.209.74-9.233zM231.476 196.17c-2.204 0-4.395.136-6.599.222A207.115 207.115 0 0 0 222 165l6.599.1a217.411 217.411 0 0 1 2.877 31.07zM184.898 177.957c-2.719 1.363-7.575-1.86-10.756-1.587-3.84.323-5.424 3.966-8.01-.446-.602-.94-1.684-1.514-2.852-1.514-1.167 0-2.249.575-2.85 1.514-4.197 6.668-8.46-2.255-13.422-1.586a8.2 8.2 0 0 0-3.748 1.884c-3.445 2.392-7.483 4.635-10.558 0-.53-.816-1.424-1.362-2.432-1.485a3.49 3.49 0 0 0-2.755.853c-.818.632-9.396 7.436-10.043 1.5-.304-2.876-4.395-4.438-6.15-1.562-1.153 2.028-3.174 3.497-5.554 4.037-2.38.54-4.893.1-6.905-1.212-3.59-2.144-6.902 3.21-3.325 5.354 5.564 3.337 12.786 2.916 17.869-1.04 1.36 1.349 3.146 2.252 5.094 2.577 4.052.744 7.655-.991 10.835-3.185 1.94 1.742 4.443 2.828 7.114 3.086 2.12.252 4.273-.008 6.255-.756 1.32-.496 3.34-2.764 4.369-2.937 1.03-.174 3.022 1.735 4.593 2.33 1.675.625 3.483.87 5.279.718a11.653 11.653 0 0 0 6.004-2.094c2.297 2.218 5.095 2.888 9.04 1.586 1.994-.657 3.22-1.313 5.544-.904 1.465.26 2.81.991 4.315 1.239 2.18.4 4.44.044 6.361-1.004 3.762-1.896.436-7.25-3.312-5.366zM82.236 105.218c1.201 3.594 4.118 6.37 8.46 5.875 4.75-.546 7.549-4.846 9.33-8.54h-5.701c3.194 6.334 12.3 8.763 18.41 4.487 2.574-1.797 2.772-2.255 5.807-1.24a15.951 15.951 0 0 0 5.689 1.389c5.424 0 9.475-3.507 13.052-6.953l-5.187-.632c3.854 6.263 11.905 9.067 19.176 6.68 1.465-.496 2.64-1.648 4.039-2.132 1.399-.483.805-.42.475-.508.198 0 1.953 1.698 2.415 1.996 3.203 1.997 7.135 2.682 10.888 1.896a12.573 12.573 0 0 0 5.055-2.181c2.19-1.76.686-2.132 2.23-1.029 2.824 2.032 4.593 4.499 8.592 4.474a7.439 7.439 0 0 0 4.262-1.24c2.072-1.4 1.637-2.478 4.395-2.057 5.49.917 9.238 2.38 14.953.967 4.104-1.004 2.362-6.99-1.755-5.974-3.376.9-6.978.682-10.202-.62-1.478-.495-3.075-1.685-4.659-1.784-2.837-.186-3.418 1.314-5.279 2.714-3.8 2.85-4.355-.793-7.311-2.95-1.714-1.366-4.2-1.453-6.018-.21-3.748 2.144-5.966 5.936-11.205 3.11-2.31-1.239-3.22-3.89-6.308-3.89-2.495 0-3.814 2.23-5.807 3.21-4.453 2.055-9.84.496-12.287-3.558-.526-.82-1.42-1.369-2.43-1.492a3.476 3.476 0 0 0-2.757.86c-3.853 3.718-6.85 5.651-12.075 3.631-2.218-.855-3.445-2.094-6.058-1.474-2.204.52-3.154 1.982-4.804 3.259-3.379 2.615-7.681 2.045-9.66-1.859-.597-.946-1.68-1.526-2.851-1.526-1.17 0-2.255.58-2.85 1.526-.067.149-4.29 8.44-5.729 4.14-1.32-3.793-7.641-2.17-6.36 1.648l.065-.013zM97.387 158.598a191.35 191.35 0 0 0-1.755-21.651c-.541-3.904-7.153-3.954-6.599 0a191.392 191.392 0 0 1 1.874 24.216c.046 1.524 1.261 2.791 2.87 2.994 1.609.203 3.137-.718 3.61-2.176l.33-1.115a2.69 2.69 0 0 0-.33-2.268zM108.239 159.994v-.322a2.505 2.505 0 0 0-.937-1.71c-.528-3.136 0-7.188-.172-9.915l-.528-12.059c-.172-3.978-6.77-3.99-6.599 0l.607 13.918c.159 3.606-.567 8.477.924 11.823.647 1.45 2.217 2.801 4.065 2.17l.396-.137c1.665-.53 2.634-2.158 2.244-3.768z"/></g></g></svg>